<mxfile host="app.diagrams.net" modified="2023-04-12T09:18:14.842Z" agent="5.0 (Macintosh; Intel Mac OS X 10_15_7) AppleWebKit/537.36 (KHTML, like Gecko) Chrome/111.0.0.0 Safari/537.36" etag="J2jSBXKBYgnIHxwFm9kQ" version="20.4.0" type="github">
  <diagram id="C5RBs43oDa-KdzZeNtuy" name="Page-1">
    <mxGraphModel dx="788" dy="423" grid="1" gridSize="10" guides="1" tooltips="1" connect="1" arrows="1" fold="1" page="1" pageScale="1" pageWidth="827" pageHeight="1169" math="0" shadow="0">
      <root>
        <mxCell id="WIyWlLk6GJQsqaUBKTNV-0" />
        <mxCell id="WIyWlLk6GJQsqaUBKTNV-1" parent="WIyWlLk6GJQsqaUBKTNV-0" />
        <mxCell id="3pRZeUomV-_jTDMupkCG-2" value="" style="edgeStyle=orthogonalEdgeStyle;orthogonalLoop=1;jettySize=auto;html=1;fontSize=18;" parent="WIyWlLk6GJQsqaUBKTNV-1" source="3pRZeUomV-_jTDMupkCG-0" target="3pRZeUomV-_jTDMupkCG-1" edge="1">
          <mxGeometry relative="1" as="geometry" />
        </mxCell>
        <mxCell id="3pRZeUomV-_jTDMupkCG-6" style="edgeStyle=orthogonalEdgeStyle;rounded=0;orthogonalLoop=1;jettySize=auto;html=1;exitX=0.5;exitY=1;exitDx=0;exitDy=0;entryX=0.5;entryY=0;entryDx=0;entryDy=0;fontSize=18;" parent="WIyWlLk6GJQsqaUBKTNV-1" source="3pRZeUomV-_jTDMupkCG-0" target="3pRZeUomV-_jTDMupkCG-5" edge="1">
          <mxGeometry relative="1" as="geometry" />
        </mxCell>
        <mxCell id="zwV18fPSDGyKy0yhCl9V-0" style="edgeStyle=orthogonalEdgeStyle;rounded=0;orthogonalLoop=1;jettySize=auto;html=1;exitX=0.5;exitY=1;exitDx=0;exitDy=0;entryX=0.5;entryY=0;entryDx=0;entryDy=0;" edge="1" parent="WIyWlLk6GJQsqaUBKTNV-1" source="3pRZeUomV-_jTDMupkCG-0" target="3pRZeUomV-_jTDMupkCG-4">
          <mxGeometry relative="1" as="geometry" />
        </mxCell>
        <mxCell id="3pRZeUomV-_jTDMupkCG-0" value="&lt;b&gt;&lt;font style=&quot;font-size: 18px;&quot;&gt;Init&lt;/font&gt;&lt;/b&gt;" style="whiteSpace=wrap;html=1;" parent="WIyWlLk6GJQsqaUBKTNV-1" vertex="1">
          <mxGeometry x="352.5" y="20" width="90" height="50" as="geometry" />
        </mxCell>
        <mxCell id="3pRZeUomV-_jTDMupkCG-12" style="edgeStyle=orthogonalEdgeStyle;rounded=0;orthogonalLoop=1;jettySize=auto;html=1;exitX=0.5;exitY=1;exitDx=0;exitDy=0;fontSize=18;entryX=0.5;entryY=0;entryDx=0;entryDy=0;" parent="WIyWlLk6GJQsqaUBKTNV-1" source="3pRZeUomV-_jTDMupkCG-1" edge="1">
          <mxGeometry relative="1" as="geometry">
            <mxPoint x="397.5" y="286.0000000000001" as="targetPoint" />
          </mxGeometry>
        </mxCell>
        <mxCell id="3pRZeUomV-_jTDMupkCG-1" value="&lt;span style=&quot;font-size: 18px;&quot;&gt;&lt;b&gt;Phi&lt;br&gt;前向运算&lt;br&gt;&lt;/b&gt;&lt;/span&gt;" style="whiteSpace=wrap;html=1;" parent="WIyWlLk6GJQsqaUBKTNV-1" vertex="1">
          <mxGeometry x="333.75" y="150" width="127.5" height="50" as="geometry" />
        </mxCell>
        <mxCell id="3pRZeUomV-_jTDMupkCG-4" value="&lt;span style=&quot;font-size: 18px;&quot;&gt;&lt;b&gt;Static&lt;br&gt;静态图&lt;br&gt;&lt;/b&gt;&lt;/span&gt;" style="whiteSpace=wrap;html=1;" parent="WIyWlLk6GJQsqaUBKTNV-1" vertex="1">
          <mxGeometry x="600" y="150" width="130" height="50" as="geometry" />
        </mxCell>
        <mxCell id="3pRZeUomV-_jTDMupkCG-5" value="&lt;span style=&quot;font-size: 18px;&quot;&gt;&lt;b&gt;Eager&lt;br&gt;动态图&lt;br&gt;&lt;/b&gt;&lt;/span&gt;" style="whiteSpace=wrap;html=1;" parent="WIyWlLk6GJQsqaUBKTNV-1" vertex="1">
          <mxGeometry x="90" y="150" width="130" height="50" as="geometry" />
        </mxCell>
      </root>
    </mxGraphModel>
  </diagram>
</mxfile>
